<?xml version="1.0" encoding="utf-8"?>
<!-- Generator: Adobe Illustrator 27.7.0, SVG Export Plug-In . SVG Version: 6.00 Build 0)  -->
<svg version="1.1" id="Layer_2_00000066473658180469452470000009725842915369351820_"
	 xmlns="http://www.w3.org/2000/svg" xmlns:xlink="http://www.w3.org/1999/xlink" x="0px" y="0px" viewBox="0 0 1061.1 1061.1"
	 style="enable-background:new 0 0 1061.1 1061.1;" xml:space="preserve">
<style type="text/css">
	.st0{fill:#FAFAFA;}
</style>
<g id="Layer_1-2">
	<path class="st0" d="M530.5,0C237.5,0,0,237.5,0,530.5s237.5,530.5,530.5,530.5s530.5-237.5,530.5-530.5S823.5,0,530.5,0z
		 M827.5,653c-0.5,24.7-5.2,49.1-13.9,72.2c-15.3,40.3-47.1,72-87.4,87.4c-23.1,8.7-47.5,13.3-72.2,13.9
		c-31.7,1.8-41.8,1.8-122.5,1.8s-90.8-0.4-122.5-1.8c-24.7-0.5-49.1-5.2-72.1-13.9c-40.2-15.3-72-47.1-87.4-87.4
		c-8.9-22.7-14-46.7-15-71c-1.8-31.7-1.8-41.8-1.8-122.5s0.4-90.8,1.8-122.5c0.5-24.7,5.2-49.1,13.9-72.1
		c15.3-40.3,47.1-72,87.4-87.4c23.1-8.7,47.5-13.4,72.1-13.9c31.7-1.8,41.8-1.8,122.5-1.8l1.1-1.1c80.6,0,90.8,0.4,122.5,1.8
		c24.7,0.5,49.1,5.2,72.2,13.9c40.3,15.3,72,47.1,87.4,87.4c8.7,23.1,13.3,47.5,13.9,72.1c1.8,31.7,1.8,41.8,1.8,122.5
		S828.9,621.3,827.5,653z M629.5,530.5c0,54.7-44.3,99-99,99l0,0c-54.7,0-99-44.3-99-99s44.3-99,99-99S629.5,475.9,629.5,530.5z
		 M762.1,355.4c-10-25.8-30.5-46.3-56.3-56.3c-17.7-6.6-36.3-10.1-55.2-10.2c-31.3-1.8-40.8-1.8-120.1-1.8v0.5
		c-79.3,0-88.8,0.2-120.1,1.8c-18.9,0.2-37.5,3.6-55.2,10.2c-25.5,10-45.6,30.2-55.7,55.7c-6.6,17.6-10.1,36.3-10.2,55.2
		c-1.8,31.3-1.8,40.8-1.8,120.1s0.2,88.8,1.8,120.1c0.2,18.8,3.6,37.5,10.2,55.2c9.9,25.8,30,46.2,55.7,56.4
		c17.6,6.6,36.3,10.1,55.2,10.2c31.3,1.8,40.7,1.8,120.1,1.8s88.8-0.2,120.1-1.8c18.8-0.2,37.5-3.6,55.2-10.2
		c25.8-10,46.3-30.5,56.3-56.3c6.6-17.7,10.1-36.3,10.2-55.2c1.8-31.3,1.8-40.8,1.8-120.1s-0.2-88.8-1.8-120.1
		C772.2,391.7,768.7,373.1,762.1,355.4L762.1,355.4z M530.5,683.1c-84.2,0-152.5-68.3-152.5-152.5S446.3,378,530.5,378
		s152.5,68.3,152.5,152.5S614.8,683.1,530.5,683.1z M689.1,407.7c-19.7,0-35.7-16-35.7-35.7s16-35.7,35.7-35.7s35.7,16,35.7,35.7
		S708.8,407.7,689.1,407.7z"/>
</g>
</svg>
